# xmcd
#
# Track frame offsets:
#	150
#	10223
#	23065
#	40244
#	56671
#	72549
#	92213
#	110007
#	127020
#	144568
#	158360
#	176368
#	194089
#	204183
#
# Disc length: 2961 seconds
#
# Revision: 0
# Processed by: cddbd v1.5PL3 Copyright (c) Steve Scherf et al.
# Submitted via: audiograbber 1.83.01
#
DISCID=c30b8f0e
DTITLE=Broken Spoke - Devil In My Soul
DYEAR=2004
DGENRE=Blues
TTITLE0=God Don't Save
TTITLE1=Burgers and Fries
TTITLE2=Gypsy Woman
TTITLE3=Devil In My Soul
TTITLE4=7 Ways to Sunday
TTITLE5=Crows Feet
TTITLE6=Johnny
TTITLE7=West Bluebonnets
TTITLE8=If You Only Knew (What You've Been Missin)
TTITLE9=Cafe con El Diablo
TTITLE10=Kentucky Whiskey
TTITLE11=The Comfort
TTITLE12=Econoline
TTITLE13=This Time
EXTD=
EXTT0=
EXTT1=
EXTT2=
EXTT3=
EXTT4=
EXTT5=
EXTT6=
EXTT7=
EXTT8=
EXTT9=
EXTT10=
EXTT11=
EXTT12=
EXTT13=
PLAYORDER=
